<mxfile host="Electron" agent="Mozilla/5.0 (Windows NT 10.0; Win64; x64) AppleWebKit/537.36 (KHTML, like Gecko) draw.io/28.0.6 Chrome/138.0.7204.100 Electron/37.2.3 Safari/537.36" version="28.0.6">
  <diagram name="Page-1" id="R90nyv3Rz4XIFROkiVHW">
    <mxGraphModel dx="1678" dy="1140" grid="1" gridSize="10" guides="1" tooltips="1" connect="1" arrows="1" fold="1" page="1" pageScale="1" pageWidth="1600" pageHeight="1200" math="0" shadow="0">
      <root>
        <mxCell id="0" />
        <mxCell id="1" parent="0" />
        <mxCell id="3E_d9uGPmS8snrze4PGS-30" value="" style="edgeStyle=none;rounded=0;orthogonalLoop=1;jettySize=auto;html=1;" edge="1" parent="1" source="3E_d9uGPmS8snrze4PGS-1" target="3E_d9uGPmS8snrze4PGS-29">
          <mxGeometry relative="1" as="geometry" />
        </mxCell>
        <mxCell id="3E_d9uGPmS8snrze4PGS-1" value="" style="whiteSpace=wrap;html=1;aspect=fixed;shadow=0;" vertex="1" parent="1">
          <mxGeometry x="210" y="300" width="500" height="500" as="geometry" />
        </mxCell>
        <mxCell id="3E_d9uGPmS8snrze4PGS-2" value="&lt;font style=&quot;font-size: 24px;&quot;&gt;Prefilter&lt;/font&gt;" style="text;html=1;align=center;verticalAlign=middle;resizable=0;points=[];autosize=1;strokeColor=none;fillColor=none;shadow=0;" vertex="1" parent="1">
          <mxGeometry x="525" y="240" width="110" height="40" as="geometry" />
        </mxCell>
        <mxCell id="3E_d9uGPmS8snrze4PGS-3" value="" style="endArrow=none;html=1;rounded=0;entryX=0.5;entryY=0;entryDx=0;entryDy=0;exitX=0.5;exitY=1;exitDx=0;exitDy=0;shadow=0;" edge="1" parent="1" source="3E_d9uGPmS8snrze4PGS-1" target="3E_d9uGPmS8snrze4PGS-1">
          <mxGeometry width="50" height="50" relative="1" as="geometry">
            <mxPoint x="530" y="570" as="sourcePoint" />
            <mxPoint x="580" y="520" as="targetPoint" />
          </mxGeometry>
        </mxCell>
        <mxCell id="3E_d9uGPmS8snrze4PGS-4" value="&lt;font style=&quot;font-size: 24px;&quot;&gt;Trajectory Switch&lt;/font&gt;" style="text;html=1;align=center;verticalAlign=middle;resizable=0;points=[];autosize=1;strokeColor=none;fillColor=none;shadow=0;" vertex="1" parent="1">
          <mxGeometry x="220" y="240" width="210" height="40" as="geometry" />
        </mxCell>
        <mxCell id="3E_d9uGPmS8snrze4PGS-6" value="&lt;font style=&quot;font-size: 24px;&quot;&gt;Phases&lt;/font&gt;" style="text;html=1;align=center;verticalAlign=middle;resizable=0;points=[];autosize=1;strokeColor=none;fillColor=none;shadow=0;" vertex="1" parent="1">
          <mxGeometry x="405" y="820" width="100" height="40" as="geometry" />
        </mxCell>
        <mxCell id="3E_d9uGPmS8snrze4PGS-10" value="" style="endArrow=classic;html=1;rounded=0;shadow=0;" edge="1" parent="1">
          <mxGeometry width="50" height="50" relative="1" as="geometry">
            <mxPoint x="540" y="839.5" as="sourcePoint" />
            <mxPoint x="680" y="839.5" as="targetPoint" />
          </mxGeometry>
        </mxCell>
        <mxCell id="3E_d9uGPmS8snrze4PGS-11" value="" style="endArrow=classic;html=1;rounded=0;shadow=0;" edge="1" parent="1">
          <mxGeometry width="50" height="50" relative="1" as="geometry">
            <mxPoint x="380" y="839.5" as="sourcePoint" />
            <mxPoint x="250" y="839.5" as="targetPoint" />
          </mxGeometry>
        </mxCell>
        <mxCell id="3E_d9uGPmS8snrze4PGS-20" style="edgeStyle=none;rounded=0;orthogonalLoop=1;jettySize=auto;html=1;exitX=1;exitY=0.5;exitDx=0;exitDy=0;entryX=1;entryY=0.5;entryDx=0;entryDy=0;shadow=0;" edge="1" parent="1" source="3E_d9uGPmS8snrze4PGS-14" target="3E_d9uGPmS8snrze4PGS-1">
          <mxGeometry relative="1" as="geometry">
            <Array as="points">
              <mxPoint x="680" y="400" />
            </Array>
          </mxGeometry>
        </mxCell>
        <mxCell id="3E_d9uGPmS8snrze4PGS-14" value="wn" style="rounded=1;whiteSpace=wrap;html=1;shadow=0;" vertex="1" parent="1">
          <mxGeometry x="520" y="370" width="120" height="60" as="geometry" />
        </mxCell>
        <mxCell id="3E_d9uGPmS8snrze4PGS-15" value="Joint 1" style="text;html=1;align=center;verticalAlign=middle;whiteSpace=wrap;rounded=0;shadow=0;" vertex="1" parent="1">
          <mxGeometry x="555" y="340" width="60" height="30" as="geometry" />
        </mxCell>
        <mxCell id="3E_d9uGPmS8snrze4PGS-21" style="edgeStyle=none;rounded=0;orthogonalLoop=1;jettySize=auto;html=1;exitX=1;exitY=0.5;exitDx=0;exitDy=0;shadow=0;" edge="1" parent="1" source="3E_d9uGPmS8snrze4PGS-16" target="3E_d9uGPmS8snrze4PGS-1">
          <mxGeometry relative="1" as="geometry" />
        </mxCell>
        <mxCell id="3E_d9uGPmS8snrze4PGS-16" value="wn" style="rounded=1;whiteSpace=wrap;html=1;shadow=0;" vertex="1" parent="1">
          <mxGeometry x="520" y="520" width="120" height="60" as="geometry" />
        </mxCell>
        <mxCell id="3E_d9uGPmS8snrze4PGS-17" value="Joint 2" style="text;html=1;align=center;verticalAlign=middle;whiteSpace=wrap;rounded=0;shadow=0;" vertex="1" parent="1">
          <mxGeometry x="555" y="490" width="60" height="30" as="geometry" />
        </mxCell>
        <mxCell id="3E_d9uGPmS8snrze4PGS-24" style="edgeStyle=none;rounded=0;orthogonalLoop=1;jettySize=auto;html=1;exitX=1;exitY=0.5;exitDx=0;exitDy=0;entryX=1;entryY=0.5;entryDx=0;entryDy=0;shadow=0;" edge="1" parent="1" source="3E_d9uGPmS8snrze4PGS-18" target="3E_d9uGPmS8snrze4PGS-1">
          <mxGeometry relative="1" as="geometry">
            <Array as="points">
              <mxPoint x="680" y="700" />
            </Array>
          </mxGeometry>
        </mxCell>
        <mxCell id="3E_d9uGPmS8snrze4PGS-18" value="wn" style="rounded=1;whiteSpace=wrap;html=1;shadow=0;" vertex="1" parent="1">
          <mxGeometry x="525" y="670" width="120" height="60" as="geometry" />
        </mxCell>
        <mxCell id="3E_d9uGPmS8snrze4PGS-19" value="Joint 3" style="text;html=1;align=center;verticalAlign=middle;whiteSpace=wrap;rounded=0;shadow=0;" vertex="1" parent="1">
          <mxGeometry x="555" y="640" width="60" height="30" as="geometry" />
        </mxCell>
        <mxCell id="3E_d9uGPmS8snrze4PGS-26" style="edgeStyle=none;rounded=0;orthogonalLoop=1;jettySize=auto;html=1;exitX=1;exitY=0.5;exitDx=0;exitDy=0;entryX=0;entryY=0.5;entryDx=0;entryDy=0;shadow=0;" edge="1" parent="1" source="3E_d9uGPmS8snrze4PGS-25" target="3E_d9uGPmS8snrze4PGS-14">
          <mxGeometry relative="1" as="geometry" />
        </mxCell>
        <mxCell id="3E_d9uGPmS8snrze4PGS-27" style="edgeStyle=none;rounded=0;orthogonalLoop=1;jettySize=auto;html=1;exitX=1;exitY=0.5;exitDx=0;exitDy=0;entryX=0;entryY=0.5;entryDx=0;entryDy=0;shadow=0;" edge="1" parent="1" source="3E_d9uGPmS8snrze4PGS-25" target="3E_d9uGPmS8snrze4PGS-16">
          <mxGeometry relative="1" as="geometry" />
        </mxCell>
        <mxCell id="3E_d9uGPmS8snrze4PGS-28" style="edgeStyle=none;rounded=0;orthogonalLoop=1;jettySize=auto;html=1;exitX=1;exitY=0.5;exitDx=0;exitDy=0;entryX=0;entryY=0.5;entryDx=0;entryDy=0;shadow=0;" edge="1" parent="1" source="3E_d9uGPmS8snrze4PGS-25" target="3E_d9uGPmS8snrze4PGS-18">
          <mxGeometry relative="1" as="geometry" />
        </mxCell>
        <mxCell id="3E_d9uGPmS8snrze4PGS-25" value="Start - End point" style="rounded=1;whiteSpace=wrap;html=1;shadow=0;" vertex="1" parent="1">
          <mxGeometry x="250" y="520" width="120" height="60" as="geometry" />
        </mxCell>
        <mxCell id="3E_d9uGPmS8snrze4PGS-33" value="" style="edgeStyle=none;rounded=0;orthogonalLoop=1;jettySize=auto;html=1;" edge="1" parent="1" source="3E_d9uGPmS8snrze4PGS-29" target="3E_d9uGPmS8snrze4PGS-32">
          <mxGeometry relative="1" as="geometry" />
        </mxCell>
        <mxCell id="3E_d9uGPmS8snrze4PGS-29" value="" style="ellipse;whiteSpace=wrap;html=1;" vertex="1" parent="1">
          <mxGeometry x="870" y="534" width="30" height="30" as="geometry" />
        </mxCell>
        <mxCell id="3E_d9uGPmS8snrze4PGS-31" value="qDesired" style="text;html=1;align=center;verticalAlign=middle;resizable=0;points=[];autosize=1;strokeColor=none;fillColor=none;" vertex="1" parent="1">
          <mxGeometry x="750" y="510" width="70" height="30" as="geometry" />
        </mxCell>
        <mxCell id="3E_d9uGPmS8snrze4PGS-35" value="" style="edgeStyle=none;rounded=0;orthogonalLoop=1;jettySize=auto;html=1;" edge="1" parent="1" source="3E_d9uGPmS8snrze4PGS-32" target="3E_d9uGPmS8snrze4PGS-34">
          <mxGeometry relative="1" as="geometry" />
        </mxCell>
        <mxCell id="3E_d9uGPmS8snrze4PGS-32" value="PD Controller" style="whiteSpace=wrap;html=1;" vertex="1" parent="1">
          <mxGeometry x="935" y="519" width="120" height="60" as="geometry" />
        </mxCell>
        <mxCell id="3E_d9uGPmS8snrze4PGS-37" value="" style="edgeStyle=none;rounded=0;orthogonalLoop=1;jettySize=auto;html=1;entryX=-0.028;entryY=0.503;entryDx=0;entryDy=0;entryPerimeter=0;" edge="1" parent="1" source="3E_d9uGPmS8snrze4PGS-34" target="3E_d9uGPmS8snrze4PGS-50">
          <mxGeometry relative="1" as="geometry">
            <mxPoint x="1335" y="549" as="targetPoint" />
          </mxGeometry>
        </mxCell>
        <mxCell id="3E_d9uGPmS8snrze4PGS-34" value="Plant" style="whiteSpace=wrap;html=1;" vertex="1" parent="1">
          <mxGeometry x="1135" y="519" width="120" height="60" as="geometry" />
        </mxCell>
        <mxCell id="3E_d9uGPmS8snrze4PGS-39" value="" style="edgeStyle=none;rounded=0;orthogonalLoop=1;jettySize=auto;html=1;exitX=1;exitY=0.5;exitDx=0;exitDy=0;" edge="1" parent="1" source="3E_d9uGPmS8snrze4PGS-50" target="3E_d9uGPmS8snrze4PGS-38">
          <mxGeometry relative="1" as="geometry">
            <mxPoint x="1380" y="549" as="sourcePoint" />
          </mxGeometry>
        </mxCell>
        <mxCell id="3E_d9uGPmS8snrze4PGS-40" style="edgeStyle=none;rounded=0;orthogonalLoop=1;jettySize=auto;html=1;exitX=1;exitY=0.5;exitDx=0;exitDy=0;entryX=0.5;entryY=1;entryDx=0;entryDy=0;" edge="1" parent="1" source="3E_d9uGPmS8snrze4PGS-38" target="3E_d9uGPmS8snrze4PGS-29">
          <mxGeometry relative="1" as="geometry">
            <Array as="points">
              <mxPoint x="1520" y="550" />
              <mxPoint x="1520" y="640" />
              <mxPoint x="1520" y="730" />
              <mxPoint x="885" y="730" />
            </Array>
          </mxGeometry>
        </mxCell>
        <mxCell id="3E_d9uGPmS8snrze4PGS-38" value="1/s" style="whiteSpace=wrap;html=1;" vertex="1" parent="1">
          <mxGeometry x="1440" y="519" width="35" height="60" as="geometry" />
        </mxCell>
        <mxCell id="3E_d9uGPmS8snrze4PGS-41" value="qActual" style="text;html=1;align=center;verticalAlign=middle;resizable=0;points=[];autosize=1;strokeColor=none;fillColor=none;" vertex="1" parent="1">
          <mxGeometry x="820" y="610" width="60" height="30" as="geometry" />
        </mxCell>
        <mxCell id="3E_d9uGPmS8snrze4PGS-43" value="" style="endArrow=none;dashed=1;html=1;dashPattern=1 3;strokeWidth=2;rounded=0;exitX=0.25;exitY=-0.025;exitDx=0;exitDy=0;exitPerimeter=0;" edge="1" parent="1" source="3E_d9uGPmS8snrze4PGS-6">
          <mxGeometry width="50" height="50" relative="1" as="geometry">
            <mxPoint x="860" y="520" as="sourcePoint" />
            <mxPoint x="430" y="160" as="targetPoint" />
          </mxGeometry>
        </mxCell>
        <mxCell id="3E_d9uGPmS8snrze4PGS-44" value="" style="endArrow=none;dashed=1;html=1;dashPattern=1 3;strokeWidth=2;rounded=0;exitX=0.25;exitY=-0.025;exitDx=0;exitDy=0;exitPerimeter=0;" edge="1" parent="1">
          <mxGeometry width="50" height="50" relative="1" as="geometry">
            <mxPoint x="740" y="820" as="sourcePoint" />
            <mxPoint x="740" y="161" as="targetPoint" />
          </mxGeometry>
        </mxCell>
        <mxCell id="3E_d9uGPmS8snrze4PGS-45" value="" style="endArrow=none;dashed=1;html=1;dashPattern=1 3;strokeWidth=2;rounded=0;" edge="1" parent="1">
          <mxGeometry width="50" height="50" relative="1" as="geometry">
            <mxPoint x="430" y="160" as="sourcePoint" />
            <mxPoint x="740" y="160" as="targetPoint" />
          </mxGeometry>
        </mxCell>
        <mxCell id="3E_d9uGPmS8snrze4PGS-46" value="" style="endArrow=none;dashed=1;html=1;dashPattern=1 3;strokeWidth=2;rounded=0;" edge="1" parent="1">
          <mxGeometry width="50" height="50" relative="1" as="geometry">
            <mxPoint x="430" y="820" as="sourcePoint" />
            <mxPoint x="740" y="820" as="targetPoint" />
          </mxGeometry>
        </mxCell>
        <mxCell id="3E_d9uGPmS8snrze4PGS-48" value="&lt;font style=&quot;font-size: 24px;&quot;&gt;Optimization&lt;/font&gt;" style="text;html=1;align=center;verticalAlign=middle;resizable=0;points=[];autosize=1;strokeColor=none;fillColor=none;shadow=0;" vertex="1" parent="1">
          <mxGeometry x="500" y="110" width="160" height="40" as="geometry" />
        </mxCell>
        <mxCell id="3E_d9uGPmS8snrze4PGS-50" value="1/s" style="whiteSpace=wrap;html=1;" vertex="1" parent="1">
          <mxGeometry x="1330" y="519" width="35" height="60" as="geometry" />
        </mxCell>
      </root>
    </mxGraphModel>
  </diagram>
</mxfile>
